<?xml version="1.0" encoding="UTF-8"?>
<svg id="Layer_2" data-name="Layer 2" xmlns="http://www.w3.org/2000/svg" viewBox="0 0 307.12 69.57">
  <defs>
    <style>
      .cls-1 {
        fill: #231f20;
      }
    </style>
  </defs>
  <g id="Layer_1-2" data-name="Layer 1">
    <path class="cls-1" d="M42.55.04h77.65c-2.89,6.17-5.7,12.37-8.51,18.57-29.51.02-59.02-.03-88.53.02,1.69-3.43,3.04-7.05,4.88-10.4C30.96,3.1,36.7.04,42.55.03h0Z"/>
    <path class="cls-1" d="M140.55.03c25.67.04,51.35-.03,77.02.09-2.83,6.14-5.67,12.28-8.38,18.48-29.44.06-58.89,0-88.34.03,2.46-4.65,4.13-10.99,8.22-14.37C132.22,1.43,136.34,0,140.55.03Z"/>
    <path class="cls-1" d="M226.69.11c20.97-.17,41.95,0,62.92-.1,3.4-.07,6.74.47,9.75,2.12,6.06,3.41,9.19,10.98,7.13,17.65-1.92,5.92-6.55,10.96-12.12,13.65-8.49,4.14-17.02,8.19-25.51,12.31,7.2,7.84,14.19,15.88,21.33,23.78-8.33,0-16.66.07-24.99-.03-8.77-9.99-17.63-19.92-26.56-29.78,14.57-7.06,29.19-14.02,43.77-21.07-21.38-.05-42.76,0-64.14-.02,2.92-6.11,5.66-12.32,8.42-18.51h0Z"/>
    <path class="cls-1" d="M19.77,25.88l.6-.09c2.69-.32,5.51-.18,8.23-.19,26.61,0,53.21,0,79.82,0-2.84,6.27-5.64,12.56-8.53,18.81-20.62-.11-41.24.02-61.85-.07-3.86,8.37-7.67,16.77-11.43,25.19-8.87.05-17.74-.02-26.61.04,6.67-14.51,13.38-29.04,19.77-43.68h0Z"/>
    <path class="cls-1" d="M117.77,25.74c8.71-.34,17.49-.03,26.22-.15-3.87,8.46-7.76,16.91-11.53,25.4,20.67-.04,41.34.02,62.01-.03-2.8,6.21-5.66,12.39-8.44,18.61-24.79-.08-49.67.02-74.46-.05-4.65.03-8.92-4-8.84-8.72-.12-2.74,1.28-5.1,2.36-7.53,4.31-9.12,8.24-18.49,12.68-27.53h0Z"/>
    <path class="cls-1" d="M215.23,25.57c8.64.08,17.29-.02,25.93.05-6.6,14.66-13.35,29.25-19.92,43.93-8.68,0-17.36-.02-26.03,0,6.72-14.63,13.26-29.36,20.02-43.98h0Z"/>
  </g>
</svg>