<?xml version="1.0" encoding="UTF-8"?>
<svg id="Layer_2" xmlns="http://www.w3.org/2000/svg" version="1.1" viewBox="0 0 73.33 156.7">
  <!-- Generator: Adobe Illustrator 30.3.0, SVG Export Plug-In . SVG Version: 2.1.3 Build 182)  -->
  <g id="Layer_1-2">
    <path d="M28.21,59.04c-4.97-.72-11.61.39-14.82-4.36-2.39-4.12,0-10.51-.07-15.1,1.14-5.54,1.11-11.44.47-17.06-.75-2.02-.32-4.33-.47-6.48.96-2.35,3.26-2.67,4.6-4.49.64-4.73-2.4-10.07-7.23-11.23C5.72-1.18.86,2.77.02,7.55c.07,36.15-.23,72.33.33,108.47.8,3.23.79,6.67,1.01,9.98.94,3.12,1.29,6.44,2.07,9.61,1.79,6.85,4.55,13.73,8.55,19.62.42.74.98,1.24,1.68,1.47.71-.19,1.23-.71,1.57-1.55,4.45-9.03,6.35-19.81,8.39-29.62,1.35-7,2.41-13.88,2.97-21,.9-5.29.26-10.81,1.33-15.99.62-9,1.12-17.99,1.15-27.01.11-1.04-.17-1.87-.86-2.49h0ZM4.66,52.53c-1.41-1.22-1.05-3.5.46-4.5,1.51-.42,2.82.04,3.44,1.53.99,2.37-1.93,4.59-3.9,2.97ZM7.64,32.52c-2.32.55-4.01-1.15-3.43-3.49,1.88-1.7,3.02-1.58,4.93-.01.21,1.56.2,2.87-1.5,3.5ZM10.31,10.48c-.2,2.26-3.47,2.94-4.47,1.01-.89-1.48-.15-2.78,1.22-3.54,1.74-.62,3.57.61,3.25,2.53Z"/>
    <path d="M73.16,124.49c0,1.44-1.16,1.99-2.49,1.87-2.86,0-5.8.15-8.64-.2-.81-1.64-.49-3.82-.58-5.63-.15-11.47.21-22.99-.31-34.45-9.17.02-18.36-.02-27.53-.08l-.8-.49c-.19-3.29.24-6.64.33-9.94-.04-.6.26-1.14.89-1.62,8.21,0,16.42.07,24.63-.06,1,.06,1.85-.2,2.57-.78.38-9.84.08-19.73.23-29.58.11-1.84-.23-4,.46-5.73,3.42-.37,8.03-1.14,11.23.19.2,28.83.27,57.67.01,86.5Z"/>
  </g>
</svg>