<?xml version="1.0" encoding="UTF-8"?>
<svg id="Layer_2" xmlns="http://www.w3.org/2000/svg" version="1.1" viewBox="0 0 6000 5590.6">
  <!-- Generator: Adobe Illustrator 30.3.0, SVG Export Plug-In . SVG Version: 2.1.3 Build 182)  -->
  <g id="Layer_1-2">
    <path d="M5977.7,2745.2c-46.5-192.3-182.6-304.6-368.5-355.4-68.1-18.5-140.6-27.9-211.2-28-1448.9-1.6-2897.9-1.3-4347-1.3h-129.9c85.5-434.3,316.8-751.6,685.5-981.7,16.7,25.4,30.5,45.9,43.9,66.7,70.1,110.9,139.2,222.3,210.4,332.5,43.1,66.7,102.8,83.3,157.5,47.2,49-32.4,60-96.8,22.5-159-50.9-84.8-104.8-167.8-157.5-251.7-27.6-44-55.4-87.9-93.2-148,153.1-49.4,290.4-101.5,431.8-138.2,355-92,717.7-111.5,1082.6-98.5,300.4,10.8,596.3,52.2,881.1,152.1,449.2,157.5,826,403.2,1033.9,853.8,26.7,57.9,87.5,75.7,139.8,51,50.2-23.7,74.9-81.9,48.8-141.6-31.2-71.4-66.4-142.3-109.6-206.8-253.8-379.6-615.6-613.2-1041.2-756.9-413.3-139.6-840.8-178.7-1273.7-164.3-428.2,14.1-848,77.7-1242.8,256.5-46,20.9-66.9,11.2-92.7-30.3-188.2-303.1-380.4-603.6-567.9-906.9-39.2-63.4-85.5-94.2-160.8-96.3-151.9-4.4-303.3-16.6-455-24.6C345.3,9.3,225.9,2.3,106.2,0,43.9-1,2.4,39.5.1,95.4c-2.3,58.8,27.4,95.7,85.1,108.1,20.1,4.2,41,5.8,61.6,6.9,227.5,12.4,455,25.6,682.6,36.1,48.2,2.2,79.7,17.3,105.7,60.4,90.7,149.6,185.7,296.4,278.9,444.5,92.8,147.6,185.3,295.4,276,440.2-5.9,10.4-7.3,15.5-10.6,18-12.8,9.7-26.2,18.8-39.7,27.6-257.9,169.4-458.3,390-591.4,669-79.7,167.1-136.7,341.5-146,528.3-4.9,97.7,29.9,133.8,128.5,137.1,13.7.4,27.6.1,41.5.1,1504.2-.1,3008.5-.4,4512.7,0,39,0,78.5,2.5,117,8.6,165.3,26,259.4,119.4,281.5,276.4,21.5,153.2-50.2,285.7-185.4,342.8-162.3,68.5-260.6,41.6-370.7-101.2-11.2-14.5-23.5-28.6-33.8-43.8-168.8-249.7-511.1-225.3-678.7-59.9-59,58.1-114.7,119.7-177.1,173.8-106.4,92.1-230.8,91.3-337.9-.7-48.8-41.8-91.2-90.8-136.3-136.8-211.6-216.4-502.6-218.5-716.5-5.3-48.9,48.8-95,100.7-147.4,145.2-104,88.4-230.2,87.5-333.1-1.2-45.2-39-85.4-83.7-127.5-126.2-236.3-239-524-235.6-755.7,8.9-28.6,30.1-56.2,60.9-85.5,90.1-124.6,124.1-270.7,124.2-395.2.1-32.5-32.5-63-67.1-93.8-101.4-119.6-133.4-269.5-191.2-446.1-167.6-216.6,29.1-395.8,121.1-467.6,342.7-68.3,210.5-44.1,412.1,119.9,575.4,124.6,124.2,285.5,160.7,456.8,160.7,1490.3,0,2980.9,0,4471.2-.3,27.6,0,55.5-1.3,82.5-6.1,53.3-9.5,79.6-47.7,81.3-97.5,1.7-50.6-25-89.3-76.9-100.8-28.8-6.5-59.3-5.8-89.2-5.8-1481.2-.3-2962.4-.1-4443.7-.8-54.8,0-111-2-164.5-13.2-168.1-35.2-256.4-148.3-255.2-318.8,1.3-172.9,88.7-277.6,257.6-317.6,132.2-31.3,240.7-1.2,327.4,104.8,20.3,24.9,44,47.1,65.9,70.6,222.7,239.1,518.1,239.9,743.2,2.6,41.1-43.4,81.6-88,126.9-126.6,102.4-87.6,231.4-88.6,333.2-1.2,52.1,44.8,98.5,96.5,146.3,146,203,210.7,509.1,210.4,712-.5,46.1-48.1,91.3-97.7,141.6-141.4,106.3-92.8,236.8-92.4,343.8,1.6,51.8,45.5,96.8,98.5,146.2,146.7,208,203,488.4,202.9,696.6,0,57.6-56.2,111.3-117.2,173.7-167.4,99.5-80,239.1-60,319.5,39.2,31.9,39.4,61.5,80.5,93.3,119.9,59.9,73.8,133.5,128.7,228,146,193.4,35.4,368.4-12.3,511.2-145.2,159.7-148.3,182.5-340.9,134.1-541.5h.3l-.5.2h0ZM2752.4,4410.4l79.2-108.9c23.1-31.9,16.1-76.5-15.7-99.6-12.7-9.2-27.4-13.6-41.9-13.6-22.1,0-43.9,10.2-57.9,29.3l-88.4,121.7c-59.9-23.8-123.9-35.9-188.3-35.8h-250.2c-282.3,0-511.2,228.9-511.2,511.2v154c0,164.5,77.7,310.9,198.5,404.4l-75.9,104.3c-23.2,31.9-16.1,76.5,15.7,99.6,12.7,9.2,27.4,13.6,41.9,13.6,22.1,0,43.9-10.2,57.8-29.3l85.1-117.1c58.3,23,121.7,35.7,188.1,35.7h250.2c282.4,0,511.4-228.9,511.4-511.2v-154c0-164.4-77.7-310.7-198.2-404.2h0c0-.1-.2-.1-.2-.1h0ZM1995.8,5208.6c-70.2-56.6-115.1-143.1-115.1-240v-154c0-170.1,138.4-308.3,308.3-308.3h250.2c21.4,0,42.2,2.1,62.4,6.3l-505.8,696h0ZM2747.7,4968.5c0,170.1-138.4,308.3-308.5,308.3h-250.2c-21.1,0-41.9-2.1-62-6.3l505.8-696c69.9,56.6,114.7,143,114.7,239.9v154h.1v.1h.1ZM5486.9,4339c-18.5-22.7-46.2-35.8-75.5-35.7-21.7,0-43.5,7.3-61.6,22.1l-678.9,555.5v-480.2c0-53.8-43.6-97.4-97.5-97.4s-97.4,43.6-97.4,97.4v981.7c0,53.8,43.6,97.4,97.4,97.4s97.5-43.6,97.5-97.4v-458.5l670.7,537c18.1,14.5,40.6,22.4,63.8,22.5,30,0,59.6-13.1,79.8-38.3l.9-1.2c31.5-39.4,25.1-96.8-14.1-128.2l-518-414.6,519.1-424.8c41.6-34.1,47.7-95.4,13.7-137h0v-.3h.1ZM4271.9,4382.9c0-52.2-42.4-94.6-94.6-94.6h-5.4c-52.2,0-94.6,42.4-94.6,94.6v844.8c-6.5,37.3-49.6,65.7-98.3,63.3-51.5-5.5-85.5-38.7-91.5-68.2h-.3l-211.1-693.3c-14-71.6-56.8-132.8-120.8-172.6-61.2-38.1-135.2-51.7-208.3-38.7-.4,0-.7,0-1.1.1-.3,0-.7,0-.9.1-133.4,25.5-233.4,129-244.2,252.6h-.1v809.8c0,52.9,43.2,95.7,96.5,95.7s96.6-42.8,96.6-95.7v-793.4c3-30.8,34.5-68.5,87.4-78.6,26-4.6,51.6-.1,72.2,12.6,10.1,6.2,27.6,20.4,32.6,44.4h-.1l.3.8s.1.5.1.7h.1l211.3,694c24.7,122.1,136.5,214,272.4,223.6v.3c4.9.3,9.8.4,14.5.4,152,0,278.7-110.4,287.2-252.4h.3v-850.1h-.1v-.2h-.1ZM1500.1,4385.7c0-52.2-42.3-94.5-94.5-94.5h-4.6c-52.2,0-94.5,42.3-94.5,94.5v734.3c0,80.5-59.5,146-132.3,146h-269.4c-73,0-132.3-65.6-132.3-146.1h-.4v-199.5c0-48.1-38.9-87-87-87h-20c-48,0-87,39-87,87v194.9c0,3.6.3,7,.7,10.3,2.9,184.8,147.9,334.1,325.9,334.1v-.3c1.7.1,3.6.3,5.3.3h259.4c1.4,0,2.9-.1,4.5-.3v.3c178.9,0,324.6-151.1,325.9-337.2v-737h0l.2.2h.1Z"/>
  </g>
</svg>