<?xml version="1.0" encoding="UTF-8"?>
<svg id="Layer_2" data-name="Layer 2" xmlns="http://www.w3.org/2000/svg" viewBox="0 0 775.62 358.26">
  <defs>
    <style>
      .cls-1 {
        fill: #fff;
      }
    </style>
  </defs>
  <g id="Layer_1-2" data-name="Layer 1">
    <path class="cls-1" d="M158.75.17c-6.98-.21-14.03-.26-20.99.05-29.43,2.03-58.02,13.2-81.13,31.5C33.03,50.3,15.27,76.08,6.51,104.83c-8.68,28.24-8.68,59.02,0,87.26,8.48,27.77,25.33,52.81,47.77,71.21,21.23,17.52,47.33,28.96,74.63,32.49,1.03.28,3.29,0,3.63,1.26,8.38,16.42,15.06,33.81,20.74,51.33,1.14,3.37,1.83,6.66,3.35,9.88.3-6.41-.58-12.97-1.01-19.38-4.38-41.78-16.41-82.99-35.34-120.51-17.13-34.19-46.61-61.57-80.89-78.15-2.78-1.42-5.72-2.31-8.35-3.95,19.52-4.15,40.53-2.56,59.7,2.62,13.19,3.81,27.29,8.59,41,10.05,8.96.95,17.85.12,25.91-4.13,10.12-5.25,17.06-14.16,24.53-22.49,23.28-26.86,47.25-53.23,76.74-73.49C233.63,20.31,196.78,2.52,158.75.17ZM159.44,114.57c-2.94,7.03-9.12,12.52-16.46,14.59-8.08,2.34-17.06.41-23.45-5.06-6.43-5.38-9.83-13.91-8.86-22.24,1.16-11.33,10.29-20.77,21.56-22.38,10.18-1.54,20.49,3.4,25.69,12.27,4.07,6.82,4.65,15.52,1.52,22.82Z"/>
    <path class="cls-1" d="M296.8,158.84c-2.07,35.39-17.7,69.33-42.67,94.41-22.14,22.32-51.35,37.38-82.47,42.05,4.42-24.21,9.19-48.52,15.14-72.4,13.07-53.64,37.27-104.49,70.74-148.4,5.39-6.9,10.78-13.93,16.79-20.3,6.68-8.46,15-15.59,22.46-23.38-.97,2.11-2.67,3.63-3.82,5.62-5.37,9.59-10.88,19.14-15.99,28.88-1.13,2.13-2.76,3.94-1.36,6.45,11.47,18.47,18.5,39.74,20.75,61.33.82,8.32,1.4,17.38.43,25.74Z"/>
    <path class="cls-1" d="M376.2,80.34c3.25-1.04,7.09.26,9.21,2.89,3.01,3.55,2.56,9.3-1.03,12.29-4.19,3.79-11.21,2.43-13.67-2.65-2.65-4.85.19-11.14,5.49-12.53Z"/>
    <path class="cls-1" d="M428.74,114.74c6.02-.57,12.49-.27,18.23,1.77,8.18,2.78,14.99,8.65,18.71,16.49-3.33,2.05-6.73,3.96-10.11,5.93-1.89-3.71-4-7.07-7.7-9.22-6.1-3.68-14.25-4.23-21.08-2.57-4.74,1.28-9.81,4.25-11.29,9.24-1.55,4.39-.35,9.49,3.21,12.53,5.98,4.72,12.68,6.27,19.86,8.14,8.19,2.47,15.75,3.67,22.22,9.79,7.44,6.24,8.68,17.43,5.15,26.06-3.47,8.2-11.75,13.44-20.15,15.45-7.57,1.68-15.58,1.58-23.1-.29-10.14-2.67-18.96-9.62-22.94-19.45,3.36-2.1,6.83-4.03,10.2-6.11,2.47,5.57,6.12,9.88,11.73,12.44,7.72,3.54,17,3.73,24.92.74,3.94-1.55,7.28-4.06,8.46-8.31,1.64-4.9-.04-10.47-4.37-13.37-9.92-6.99-24.38-7.21-35.19-12.88-4.26-2.41-8.43-5.96-10.64-10.4-3.55-7.72-2.8-17.53,2.41-24.34,5.01-6.72,13.2-10.85,21.47-11.64Z"/>
    <path class="cls-1" d="M561.38,138.23c-4.45-8.2-11-15.41-19.47-19.54-9.71-4.82-21.75-5.13-32.18-2.9-16.99,3.75-30.51,18.09-33.86,35.08-1.87,8.86-1.46,18.13,1.15,26.8,3.68,12.14,12.91,22.49,24.5,27.61,9.33,4.16,20.21,5.07,30.24,3.58,12.84-1.91,24.32-9.22,31.33-20.16-3.39-2.33-7.08-4.17-10.55-6.38-4.02,6.31-9.69,11.12-16.84,13.5-10.56,3.38-22.98,2.39-32.61-3.26-8.92-5.26-14.59-14.28-15.7-24.56,26.46-.02,52.91.02,79.37-.02,1.17-10.23-.47-20.65-5.38-29.75ZM487.43,156.19c1.11-10.47,7.28-19.96,16.34-25.29,12.62-7.2,30.16-6.28,40.77,4.18,6.16,5.63,8.83,13.08,10.18,21.12-22.43.03-44.86.06-67.29-.01Z"/>
    <path class="cls-1" d="M766.52,133.12c-6.78-9.2-16.39-16.09-27.77-18.13-10.03-1.71-21.23-.59-29.98,4.94-3.99,2.46-7,5.78-10.01,9.3-.01-4.18,0-8.35,0-12.53-6.6-.02-13.2-.07-19.79.04.04,42.26-.09,84.55.07,126.81,6.56.1,13.12.04,19.69.04.07-16.27-.01-32.55.03-48.82,4.41,5.93,10.41,10.51,17.46,12.81,11.65,3.72,25.13,2.73,35.78-3.47,10.24-5.98,18.25-15.97,21.57-27.39,4.13-14.58,2.14-31.29-7.05-43.6ZM747.05,183.17c-10.51,10.48-29.84,10.27-40.06-.54-11.06-10.67-10.98-30.79.09-41.43,4.32-4.4,10.01-7.09,16.12-7.82,8.49-1.14,17.54,1.2,23.75,7.29,11.8,10.67,11.86,31.78.1,42.5Z"/>
    <path class="cls-1" d="M360.89,115.16c-.04,3.88-.01,7.77-.04,11.66-8.35.28-16.29,2.78-22.08,9.04-4.84,5.66-6.25,12.71-6.36,19.98-.13,17.15.04,34.32-.09,51.47-4.05.06-8.09.06-12.14,0-.08-30.2-.05-60.41-.02-90.61,4.06-.03,8.12-.03,12.18,0,.04,4.75.06,9.5-.03,14.25,2.15-3.33,4.34-6.51,7.44-9.05,5.95-5.04,13.49-6.72,21.14-6.74Z"/>
    <path class="cls-1" d="M372.58,116.7c4.06-.03,8.11-.04,12.17.02v90.55c-4.05.13-8.11.08-12.17.06-.03-30.21-.02-60.42,0-90.63Z"/>
    <path class="cls-1" d="M578.38,116.7c6.57-.03,13.13-.03,19.7,0,.09,18.38-.1,36.81.09,55.18.22,7.58,3.63,14.66,10.94,17.63,8.48,3.24,19.83,1.89,26.16-5.11,4.62-5.19,5.76-11.79,5.86-18.52.07-16.39-.03-32.79.04-49.18,6.57-.03,13.14-.03,19.7,0,.03,30.21.03,60.42,0,90.63-6.56.02-13.12.05-19.68-.02-.07-3.73-.07-7.46.01-11.2-3.6,5.43-8.69,9.52-14.88,11.6-8.2,2.68-17.29,2.74-25.52.12-8.39-2.73-15.34-9.08-18.93-17.12-2.7-5.97-3.5-12.33-3.5-18.84-.01-18.39-.03-36.78.01-55.17Z"/>
  </g>
</svg>