<?xml version="1.0" encoding="UTF-8"?>
<svg id="Layer_1" xmlns="http://www.w3.org/2000/svg" version="1.1" viewBox="0 0 2878 360">
  <!-- Generator: Adobe Illustrator 30.3.0, SVG Export Plug-In . SVG Version: 2.1.3 Build 182)  -->
  <path d="M219,.74c15.77-1.13,31.81.37,47.5,2.02,17.55,2.34,34.93,6.36,51.76,11.83,14.63,4.8,29.55,12.61,39.11,25.01,5.91,7.21,9.53,16.01,9.29,25.42-.15,7.13-2.95,13.96-6.82,19.86-3.55,5.2-9.53,9.04-14.94,12.08-10.69,5.56-23.62,6.76-35.4,4.79-15.71-2.29-30.91-10.8-44.4-18.8-3.21-2.16-6.43-1.32-10.1-1.47-6.11.15-11.77-.52-17.5,2.01-6.61,2.91-12.97,6.79-17.56,12.47-5.3,6.31-8.16,14.57-6.45,22.79,1.69,8.31,7.32,14.78,13.58,20.15,19.07,15.46,39.94,24.61,60.26,37.77,8.22,5.2,16.08,11.11,22.61,18.37,9.6,10.42,16.19,23.77,19.66,37.45,3.39,13.18,3.02,27.25-1,40.25-2.54,7.95-6.89,15.29-11.99,21.85-8.54,10.84-18.82,20.22-30.65,27.37-34.34,21.19-74.99,32.4-114.97,35.99-19.24,1.61-38.75,1.86-57.99.05-14.96-1.36-29.53-5.08-43.53-10.47-9.52-3.71-19.16-7.8-27.93-13.07-11.07-6.86-21.1-15.53-29.42-25.56-5.84-7.23-11.14-16.34-12.12-25.72v-4.34c.76-6.01,2.38-11.65,6.92-15.91,5.75-5.86,12.88-8.2,20.59-10.36,7.18-1.81,15.14-1.64,22.48-1.07,6.54.32,12.99,1.25,19.23,3.26,16.11,5.23,32.46,9.75,48.88,13.89,13.71,3.39,27.87,4.48,41.94,3.34,6.15-.61,11.39-4.95,13-10.95,2.17-8.01-.67-17.23-4.97-24.08-4.79-6.89-12.87-11.94-20.12-15.91-19.85-10.26-40.23-22.11-56.98-37.02-13.55-12.37-26.24-26.42-33.53-43.48-4.85-11.36-6.2-24.34-4.95-36.56.91-9.73,4.34-18.86,9.26-27.25,6.01-10.21,13.98-19.33,22.7-27.31,18.62-16.36,40.3-27.24,63.55-35.44C170.96,6.38,194.81,1.8,219,.74Z"/>
  <path d="M2852.75,124c.01-17.41-3.59-35.05-10.85-50.89-11.12-23.82-30.12-44.02-52.81-57.22-8.48-5.49-17.75-8.67-27.35-11.59-8.37-2.64-18.04-2.59-26.74-2.42-13.84.24-27.26,2.35-40.99,3.59-32.92,3.26-66.13,2.58-98.98-1.09-16.39-1.97-33.53-3.69-50.05-3.03-11.05.22-21.68,4.41-30.15,11.46-8.41,6.92-16.99,15.56-21.31,25.71-4.94,10.49-7.63,21.43-9.92,32.75-4.45,24.61-9.9,49.05-16.15,73.26-7.75,29.45-14.3,59.22-19.63,89.19-4.14,20.78-3.4,43.13-3.01,64.28.04,10.18,3,19.72,7.37,28.82,4.73,9.75,11.99,18.18,21.51,23.51,11.74,6.56,25.18,7.17,38.3,6.21,7.98-.17,15.79-1.49,23.56-3.19,4.35-.97,8.9-2.66,13.38-2.67,5.05.11,10.11,1.29,15.15,1.8,34.56,3.91,69.81,2.53,103.94-4.2,14.68-3.4,29.44-7.29,43.42-12.98,12.84-5.58,25.63-11.83,37.37-19.49,13.5-9.16,26.41-19.48,37.64-31.34,11.32-12.14,21.91-25.27,30.53-39.48,9.13-15.76,17.32-32.19,23.81-49.23,7.77-22.94,13.33-47.42,11.96-71.76ZM2692.45,184.54c-5.57,22.49-15.87,43.97-28.74,63.17-5.03,7.09-11.34,15.9-19.56,19.4-7.87,3.37-17.51,2.54-25.12-1.15-8.46-4.61-15.61-12.15-17.34-21.92-.78-6.47-.01-13.14,2.17-19.28,2.74-8.4,5.71-16.72,8.82-25,9.93-27.12,19.27-54.47,27.97-82.01,2.38-7.55,4.9-15.06,7.6-22.5,1.14-2.75,1.96-5.69,4.62-7.35,4.06-2.93,8.99-3.36,13.6-1.42,9.22,3.78,16.77,11.8,21.89,20.18,3.97,7.34,6.42,15.64,7.78,23.86,2.49,18.24.62,36.23-3.69,54.02Z"/>
  <path d="M1843.99,6.43c16.65-1.41,34.56,2.37,48.16,12.41,10.37,7.54,16.93,18.67,20.3,30.89,1.96,8.09,2.1,16.99,2.04,25.27.08,9.4-.86,18.98-3.19,28.11-3.36,13.32-7.73,26.42-13.2,39.02-1.11,2.56-1.93,5.22-2.73,7.89,12.53-1.43,25.13-4.6,36.48-10.17,13.99-6.88,26.03-17.17,35.45-29.56,6.35-8.37,10.7-18.76,14.42-28.53,3.54-9.04,8.03-17.64,13.12-25.9,5.39-8.88,12.72-16.69,20.6-23.42,6.24-4.8,13.65-8.4,21.04-11.03,18.03-5.44,38.31-3.81,55.55,3.63,6.6,2.96,12.8,6.96,18.59,11.28,7.03,5.23,12.19,11.86,17.03,19.08,7.53,11.33,11.51,25.04,11.82,38.6.29,9.21-1.97,18.37-4.21,27.28-4.62,16.63-9.86,33.17-15.43,49.5-13.85,40.77-29.32,81.01-46.55,120.48-3.36,7.86-6.9,15.63-10.8,23.25-3.5,6.79-8.62,12.6-14.2,17.77-6.71,6.28-14.59,11.45-23.11,14.96-10.5,4.54-23.04,5-34.28,3.85-10.64-1.63-21.24-6.38-28.51-14.49-7.43-8.1-11.07-18.08-13.1-28.73-2.72-12.78-2.31-25.42-1.47-38.37,1-16.48,4.11-32.48,7.04-48.68-7.79-2.29-16.72-2.07-24.88-2.55-7.67.06-15.45.19-23.07,1.18-5.59.64-10.62,2.53-15.78,4.68-15.41,6.84-27.15,18.93-35.81,33.18-7,12.42-13.2,25.32-18.53,38.54-3.2,7.91-6.74,15.72-10.71,23.28-11.49,20.01-33.83,33.08-57.03,32.29-11.72-.08-22.72-4.51-32-11.5-9.93-8.37-16.12-19.76-19.5-32.18-2.94-11.32-4.55-23.04-4.64-34.74.01-21.87,2.39-43.64,6.62-65.08,6.96-37.14,17.49-73.11,29.48-108.9,3.93-12.1,8.27-24.12,13.26-35.83,4.72-10.37,12.14-19.77,19.97-27.97,6.95-7.41,16.03-13.27,24.87-18.19,11.27-6.08,24.06-10.08,36.89-10.6Z"/>
  <path d="M2346.1,6.07c19.96-.7,39.92-.87,59.88.06,6.06.44,12.08,1.28,17.95,2.88,11.05,2.91,21.78,7.87,28.98,17.07,3.96,4.93,4.85,11.8,5.04,17.92-.12,9.99-2.8,19.95-9.09,27.87-6.53,9.04-16.88,13.88-27.36,16.74-16.24,4.29-34.32,5.17-51.01,6.57-7.09.68-14.83,1.16-21.54,3.66-4.58,1.52-8.56,4.94-11.18,8.95-2.88,4.98-3.41,11.6-3.39,17.24-.14,6.92,3.38,13.68,7.9,18.73,4.42,4.79,10.46,6.07,16.69,6.65,10,.56,20.04.69,30.04,1.17,7.33.58,15.54,1.74,22.05,5.33,5.5,3.1,10.39,7.84,11.46,14.33,2.66,16.62-5.13,34.76-19.27,44-11.2,7.51-25.98,10.25-39.24,10.93-17.83.99-36.2-.78-54-1.4-4.42-.16-8.81-.36-13.07,1.04-4.35,1.48-8.46,4.13-11.47,7.62-7,8.02-10.13,18.21-12.7,28.33-1.45,5.88-.07,12.69,5.41,16.01,1.64.91,3.5,1.47,5.33,1.87,12.05,2.11,23.28.81,35.4.28,12.68-1.35,25.36-1.91,38.1-2.43,7.74-.21,15.15-.09,22.33,3.19,7.5,3.56,13.6,10.26,17.54,17.46,4.36,8.77,4.84,19.56,2.03,28.88-2.06,7.85-8.36,14.58-15.05,18.88-8.66,4.74-18.67,7.41-28.4,8.84-17.94,2.91-36.34,3.52-54.47,2.59-25.89-.5-51.46-7.6-74-20.32-13.32-7.9-26.76-17.27-37.22-28.78-7.32-7.86-14.04-16.12-19.83-25.17-14.07-22.57-22.85-48.39-24-75.06-1.41-22.67,2.52-44.18,7.73-66.11,3.48-14.03,7.1-27.67,13.46-40.72,15.9-34.29,45.54-61.72,79.83-77.13,11.27-5.6,23.99-8.93,36.29-11.47,20.83-3.04,41.88-4.78,62.85-6.5Z"/>
  <path d="M1298,7.46c29,.31,58.03.04,87,1.09,16.62.29,33.23,1.72,49.75,3.53,5.92.86,12.62,1.23,17.81,4.35,7.55,3.99,13.21,10.68,16.68,18.4,2.82,5.64,2.25,12.96,2.36,19.17-.17,10.92-6.4,20.33-14.94,26.67-6.45,4.81-15.22,6.47-22.95,8.21-17.73,4.06-37.06,4.35-55.22,5.93-6.65.68-12.84,2.04-17.69,6.99-6.23,5.51-8.26,12.58-10.76,20.19-10.71,33.87-22.06,67.54-33.96,101.02-9.32,26.21-19.52,52.09-30.37,77.71-2.19,5.04-4.6,9.98-7.16,14.83-4.64,9.18-12.59,17.05-20.34,23.68-6.7,5.7-14.33,10.14-22.93,12.24-5.7,1.54-11.41,1.93-17.28,2.27-7.93.34-15.55.23-23.11-2.46-10.06-3.28-18.38-10.28-24.08-19.11-5.07-8.62-8.09-18.16-8.65-28.17-1.4-19.78-.45-39.98,3.11-59.51,3.03-17.65,6.44-35.23,10.24-52.73,3.74-17.23,6.95-34.61,9.77-52.01.82-6.17,1.58-12.51,1.28-18.74-1.15-10.47-7.08-19.36-16.62-23.96-20.33-10.12-46.63-10.07-67.45-19.51-5.59-2.44-11.18-6.48-14.02-12.01-2.89-6.33-2.94-14.09-1.52-20.79,1.87-7.14,6.64-13.81,12.28-18.49,10.36-7.88,22.1-8.34,34.52-10,36.95-4.02,74.15-6.12,111.25-8.22,17.66-.28,35.33-.43,53-.57Z"/>
  <path d="M495,8.35c10.37.16,21.28,2.86,29.99,8.62,13.48,8.28,22.58,23.21,25.81,38.49,2.94,14.85,1.82,30.66-1.12,45.43-2.26,8.63-3.09,17.51-1.72,26.37,2.6,16.04,8.2,31.76,15.54,46.22,3.74,7.52,8.21,14.93,13.74,21.27,2.02,2.18,5.55,5.47,8.76,4.71,3.71-1.73,5.27-7.17,6.71-10.7,5.09-15.93,8.47-31.94,11.7-48.21,4.67-21.41,9.26-43.68,17.27-64,5.23-12.7,13.15-24.36,22.34-34.53,9.45-9.43,21.47-17.02,34.48-20.31,9.17-2.09,19.07-1.79,28.4-1.11,30.39,3.25,57.9,25.31,66.93,54.63,3.13,11.24,4.05,23.32,2.09,34.84-2.63,12.4-6.1,24.65-10.08,36.68-13.19,40.86-28.14,81.18-44.21,120.99-6.05,14.99-12.59,29.78-19.52,44.39-3.24,6.76-7.74,12.69-12.84,18.15-11.82,13.13-29.33,22.7-47.28,22.58-8.56.08-16.54.19-24.45-3.51-9.2-3.42-16.83-9.32-23.82-16.07-6.51-6.22-11.1-14.96-15.04-22.99-3.81-7.7-5.78-15.93-9.01-23.84-6.9-17.46-16.14-33.88-26.82-49.3-5.62-8.03-11.27-15.83-18.16-22.84-5.09-5.14-10.55-10.5-16.67-14.39-2.13-1.39-4.49-2.35-7.04-2.58-2.46.97-2.93,3.64-3.51,5.92-2.33,12.41-2.16,24.33-3.66,36.72-2.1,19.17-6.33,39.95-15.82,56.93-9.2,16.04-21.82,30.45-37.09,40.97-10.19,7.29-23.14,14.37-35.93,14.62-11.88.42-23.15-4.86-32-12.48-7.32-7.18-13.89-16.3-16.68-26.27-3.13-10.66-5.09-21.63-5.54-32.75-.63-19.26.82-38.49,3.95-57.5,6.64-42.6,19.18-85.11,32.77-125.99,3.8-12.05,8.43-23.87,13.68-35.36,5.19-11.32,13.92-20.65,22.86-29.12,11.37-9.98,24.37-18.07,39.08-22.04,10.09-2.98,21.46-2.94,31.91-2.64Z"/>
  <path d="M1088.49,276c-.04-25.15-2.1-50.27-6.03-75.11-3.88-26.27-8.21-52.47-12.98-78.6-3.39-19.84-7.3-39.58-11.81-59.19-3.06-13.16-11.79-25.13-21.21-34.56-11.34-10.66-25.91-18.43-41.55-19.91-8.5-.59-17.42-.98-25.83.53-15.44,3.74-28.53,11.58-41.63,20.29-14.88,10.51-29.09,22.14-41.92,35.08-12.9,12.83-25.15,26.26-36.48,40.5-24.35,30.7-46.1,63.32-63.7,98.37-9.43,18.1-17.48,36.86-23.61,56.34-4.83,15.58-8.95,30.8-9.16,47.26-.42,9.66,1.06,19.19,5.43,27.88,3.59,6.48,9.54,11.72,16.16,14.99,5.47,2.88,12.77,2.75,18.84,3.03,10.5.29,20.61-1.96,29.86-6.95,7.91-3.86,14.26-9.5,20.64-15.44,4.48-4.22,8.36-8.91,13.19-12.78,5.55-4.44,11.55-9.06,18.13-11.84,8.9-3.82,18.47-5.62,28.14-5.7,5.67.2,11.5.53,17.04,1.82,8.07,1.77,16.54,3.58,24.2,6.73,16.22,6.89,32.25,14.15,47.93,22.21,10.9,5.62,22.03,10.74,33.26,15.65,7.4,3.45,15.49,5.53,23.56,6.64,9.69,1.17,19.61-1.69,26.26-9.05,6.74-7.41,10.1-18.23,11.8-27.93,1.61-13.28,1.56-26.9,1.47-40.26ZM937.8,228.77c-9.38,6.43-19.71,7.22-30.75,7.26,8.12-12.86,16.17-25.78,24.42-38.56,1.81-2.88,3.54-5.71,5.9-8.18,1.39,1.88,2.47,3.96,3.29,6.15,2.39,6.15,4.23,12.97,4.1,19.6-.34,5.31-2.21,10.8-6.96,13.73Z"/>
  <path d="M1628,13.53c8.36-.42,16.63.06,25,.18,7.68.09,15.39.51,23.02,1.39,7.18,1.39,14.3,4.25,20.06,8.81,5.88,4.57,9.81,11.27,11.28,18.55,1.39,7,1.52,14.6-.49,21.5-1.77,6.35-7.03,11.84-11.97,15.97-4.3,3.55-9.45,4.39-14.85,4.63-16.67.72-33.43-.86-50.1-.02-7.89.31-15.77,2.69-22.43,6.97-11.95,7.09-21.16,19.21-27.76,31.24-8.31,14.56-13.33,30.34-16.54,46.73-3.23,17.61-4.12,35.39-.53,53.04,2.74,14.22,8.4,28.57,18.95,38.83,9.22,8.72,21.66,14.11,34.33,14.78,15.34.9,30.64.23,45.5-3.96,8.61,4.38,17.92,9.69,24.16,17.23,4.01,4.72,5.25,11.31,2.75,17.05-3.14,7.29-10.3,13.03-17.05,16.87-15.2,8.74-33.33,13.73-50.3,17.81-20.99,4.47-42.55,7.92-64.03,8.44-15.85.87-31.48-1.45-46.75-5.6-10.14-2.76-20.38-5.6-29.77-10.41-11.22-5.45-21.51-12.9-30.22-21.82-11.29-12.27-20.31-26.22-24.65-42.47-7.62-25.57-6.61-52.06-1.43-77.98,7.56-35.88,23.73-70.05,45.97-99.16,11.8-15.83,26.51-29.77,41.84-42.14,11.12-9.3,24.91-16.08,38.13-21.86,6.15-2.74,12.48-4.33,19-5.93,13.45-3.18,27.24-5.48,40.89-7.61,5.84-.97,12.03-.77,17.99-1.06Z"/>
  <path d="M2870.57,308.41c4.31,4.31,7.02,9.1,7.43,15.3v3.82c-.64,6.37-2.84,12.43-7.47,16.98-5.63,6.07-15.15,8.23-23.08,6.72-10.11-2.19-17.45-10.91-19.8-20.69-1.84-9.41,2.47-20.15,10.71-25.24,9.44-6.43,24.4-5.74,32.21,3.11Z"/>
</svg>